<svg xmlns="http://www.w3.org/2000/svg" width="760" height="320" viewBox="0 0 152 64">
  <rect width="152" height="64" fill="#17110b"/>
  <g transform="translate(8,6)" fill="#caa25a">
    <path d="M28 2 C22 12,16 20,16 30 C16 42,25 50,36 50 C47 50,56 42,56 30 C56 20,50 12,44 2
             C43 10,40 16,36 21 C32 16,29 10,28 2 Z"/>
    <path d="M36 12 C31 20,25 24,25 32 C25 39,30 44,36 44 C42 44,47 39,47 32 C47 24,41 20,36 12 Z"
          fill="#17110b"/>
    <path d="M36 18 C32 24,29 27,29 32 C29 36,32 39,36 39 C40 39,43 36,43 32 C43 27,40 24,36 18 Z"/>
    <path d="M10 36 A22 22 0 0 0 62 36" fill="none" stroke="#caa25a" stroke-width="3"/>
    <circle cx="12" cy="36" r="2"/><circle cx="16" cy="42" r="2"/>
    <circle cx="22" cy="47" r="2"/><circle cx="50" cy="47" r="2"/>
    <circle cx="56" cy="42" r="2"/><circle cx="60" cy="36" r="2"/>
  </g>
  <text x="60" y="28" font-family="Arial, Helvetica, sans-serif" font-size="18" fill="#f3efe8">Lubcon</text>
  <text x="60" y="48" font-family="Arial, Helvetica, sans-serif" font-size="12" fill="#f3efe8">Oil Group</text>
</svg>